{
	"asset":{
		"generator":"Khronos glTF Blender I/O v4.1.63",
		"version":"2.0"
	},
	"scene":0,
	"scenes":[
		{
			"name":"Scene",
			"nodes":[
				0
			]
		}
	],
	"nodes":[
		{
			"mesh":0,
			"name":"Coin_Baked"
		}
	],
	"materials":[
		{
			"doubleSided":true,
			"name":"Coin_Baked",
			"normalTexture":{
				"index":0
			},
			"pbrMetallicRoughness":{
				"baseColorTexture":{
					"index":1
				},
				"metallicRoughnessTexture":{
					"index":2
				}
			}
		}
	],
	"meshes":[
		{
			"name":"Mesh_0.004",
			"primitives":[
				{
					"attributes":{
						"POSITION":0,
						"NORMAL":1,
						"TEXCOORD_0":2
					},
					"indices":3,
					"material":0
				}
			]
		}
	],
	"textures":[
		{
			"sampler":0,
			"source":0
		},
		{
			"sampler":0,
			"source":1
		},
		{
			"sampler":0,
			"source":2
		}
	],
	"images":[
		{
			"mimeType":"image/png",
			"name":"Coin_Bake1_PBR_Normal",
			"uri":"Coin_Bake1_PBR_Normal.png"
		},
		{
			"mimeType":"image/png",
			"name":"Coin_Bake1_PBR_Diffuse",
			"uri":"Coin_Bake1_PBR_Diffuse.png"
		},
		{
			"mimeType":"image/png",
			"name":"Coin_Bake1_PBR_Metalness-Coin_Bake1_PBR_Roughness",
			"uri":"Coin_Bake1_PBR_Metalness-Coin_Bake1_PBR_Roughness.png"
		}
	],
	"accessors":[
		{
			"bufferView":0,
			"componentType":5126,
			"count":1783,
			"max":[
				0.20856590569019318,
				0.2085658609867096,
				0.038534101098775864
			],
			"min":[
				-0.20856592059135437,
				-0.2085658758878708,
				-0.043982744216918945
			],
			"type":"VEC3"
		},
		{
			"bufferView":1,
			"componentType":5126,
			"count":1783,
			"type":"VEC3"
		},
		{
			"bufferView":2,
			"componentType":5126,
			"count":1783,
			"type":"VEC2"
		},
		{
			"bufferView":3,
			"componentType":5123,
			"count":7800,
			"type":"SCALAR"
		}
	],
	"bufferViews":[
		{
			"buffer":0,
			"byteLength":21396,
			"byteOffset":0,
			"target":34962
		},
		{
			"buffer":0,
			"byteLength":21396,
			"byteOffset":21396,
			"target":34962
		},
		{
			"buffer":0,
			"byteLength":14264,
			"byteOffset":42792,
			"target":34962
		},
		{
			"buffer":0,
			"byteLength":15600,
			"byteOffset":57056,
			"target":34963
		}
	],
	"samplers":[
		{
			"magFilter":9729,
			"minFilter":9987
		}
	],
	"buffers":[
		{
			"byteLength":72656,
			"uri":"Coin.bin"
		}
	]
}
